<svg width="210mm" height="297mm" version="1.1" viewBox="0 0 210 297" xmlns="http://www.w3.org/2000/svg">
 <g fill="#1c7595">
  <path d="m117.68 102.96c0.1934-3.2037 0.63023-5.6967 1.3199-7.5328 0.58496-1.5573 5.4263-9.4957 5.9043-9.6812 0.97324-0.37787 1.2169-0.53197 1.4643-0.9259 0.80092-1.2755-0.29953-3.0148-1.8004-2.8457-1.138 0.12827-1.7352 0.92971-1.6084 2.1583l0.0797 0.77253-3.4364 5.6286c-3.5771 5.8591-3.917 6.3143-4.9868 6.6788-2.3339 0.79524-4.6602-0.82207-4.6602-3.24 0-0.97213 0.20733-1.3883 2.8307-5.6816l2.4654-4.0349 0.61042-0.22475c2.0944-0.77114 1.9097-3.4815-0.24817-3.641-1.4597-0.10792-2.1188 0.75127-1.9527 2.5454 0.0405 0.43715-4.9692 8.8089-5.7492 9.6075-1.8896 1.9348-5.3073 0.91844-6.0428-1.797-0.85817-3.1684 1.4165-6.4593 6.2702-9.0717 1.0087-0.54293 1.4192-0.60163 1.4192-0.20296 0 0.41595-3.8842 6.5832-4.231 6.718-0.97574 0.37914-1.2184 0.53251-1.4658 0.92659-1.194 1.9015 1.4285 3.8635 2.9639 2.2175 0.80437-0.70201 0.73379-1.6455 0.37348-2.315l2.668-4.3651c1.4674-2.4008 2.8462-4.5682 3.0639-4.8165 1.6722-1.9068 5.0854-1.1282 5.8143 1.3264 0.4443 1.4961 0.30682 1.8465-2.5718 6.5541-2.664 4.3567-2.7012 4.4096-3.0967 4.4109-1.6373 5e-3 -2.0748 2.7685-0.55273 3.4908 1.4696 0.69739 2.8553-0.31886 2.685-1.9691l-0.0787-0.76253 3.3637-5.5063c1.85-3.0284 3.5439-5.6989 3.7641-5.9344 2.067-2.2096 5.9376-0.71775 5.9505 2.2935 4e-3 1.0338-0.11775 1.2821-2.8085 5.7076l-2.5132 4.1335-0.50667 0.13644c-2.2232 0.59865-1.9054 3.7014 0.37908 3.7014 1.1485 0 1.9477-0.99787 1.8088-2.2585l-0.0812-0.73711 1.7631-2.8885c2.3646-3.8739 2.8158-4.2948 4.6074-4.2982 3.372-6e-3 4.7003 3.9316 2.1114 6.2593-1.1311 1.0169-3.6989 2.1823-3.6989 1.6787 0-0.14988 1.1426-2.0818 1.4307-2.419 0.10878-0.12733 0.3225-0.23173 0.47494-0.232 1.6143-3e-3 2.0986-2.7344 0.6203-3.4988-1.4408-0.74509-2.9326 0.35198-2.7373 2.0131l0.0849 0.72222-1.7423 2.8624c-2.2862 3.756-2.3837 3.8557-4.415 4.5161-2.5056 0.81452-3.5953 1.796-4.6258 4.1666-0.6668 1.5339-0.79063 1.471-0.68097-0.34553z" stroke-width=".13229"/>
  <text x="101.51215" y="110.19386" font-family="sans-serif" font-size="4.9389px" stroke-width=".26458" style="line-height:1.25" xml:space="preserve"><tspan x="101.51215" y="110.19386" fill="#1c7595" font-family="'Berlin Sans FB'" font-size="4.9389px" stroke-width=".26458">IQ CONVERTER</tspan></text>
 </g>
</svg>
